<svg style="width:132px;height:21px;" viewBox="0 0 132 21" xmlns="http://www.w3.org/2000/svg">
<rect fill="#ffffff" fill-opacity="1" height="100%" width="100%"/>
<path d="M12,0 L15,1" fill="none" stroke="#000000" stroke-opacity="1" transform="matrix(1 0 0 1 0 0)"/>
<path d="M15,1 L15,3" fill="none" stroke="#000000" stroke-opacity="1" transform="matrix(1 0 0 1 0 0)"/>
<path d="M15,3 L14,8" fill="none" stroke="#000000" stroke-opacity="1" transform="matrix(1 0 0 1 0 0)"/>
<path d="M14,1 L14,18" fill="none" stroke="#000000" stroke-opacity="1" transform="matrix(1 0 0 1 0 0)"/>
<path d="M14,18 L13,20" fill="none" stroke="#000000" stroke-opacity="1" transform="matrix(1 0 0 1 0 0)"/>
<path d="M13,20 L11,21" fill="none" stroke="#000000" stroke-opacity="1" transform="matrix(1 0 0 1 0 0)"/>
<path d="M11,21 L8,21" fill="none" stroke="#000000" stroke-opacity="1" transform="matrix(1 0 0 1 0 0)"/>
<path d="M8,21 L6,20" fill="none" stroke="#000000" stroke-opacity="1" transform="matrix(1 0 0 1 0 0)"/>
<path d="M6,20 L5,19" fill="none" stroke="#000000" stroke-opacity="1" transform="matrix(1 0 0 1 0 0)"/>
<path d="M5,19 L5,17" fill="none" stroke="#000000" stroke-opacity="1" transform="matrix(1 0 0 1 0 0)"/>
<path d="M5,17 L6,16" fill="none" stroke="#000000" stroke-opacity="1" transform="matrix(1 0 0 1 0 0)"/>
<path d="M6,16 L8,15" fill="none" stroke="#000000" stroke-opacity="1" transform="matrix(1 0 0 1 0 0)"/>
<path d="M8,15 L11,15" fill="none" stroke="#000000" stroke-opacity="1" transform="matrix(1 0 0 1 0 0)"/>
<path d="M11,15 L14,16" fill="none" stroke="#000000" stroke-opacity="1" transform="matrix(1 0 0 1 0 0)"/>
<path d="M14,16 L18,18" fill="none" stroke="#000000" stroke-opacity="1" transform="matrix(1 0 0 1 0 0)"/>
<path d="M18,18 L23,21" fill="none" stroke="#000000" stroke-opacity="1" transform="matrix(1 0 0 1 0 0)"/>
<path d="M14,16 L19,18" fill="none" stroke="#000000" stroke-opacity="1" transform="matrix(1 0 0 1 0 0)"/>
<path d="M19,18 L23,20" fill="none" stroke="#000000" stroke-opacity="1" transform="matrix(1 0 0 1 0 0)"/>
<path d="M23,20 L23,21" fill="none" stroke="#000000" stroke-opacity="1" transform="matrix(1 0 0 1 0 0)"/>
<path d="M14,8 L17,8" fill="none" stroke="#000000" stroke-opacity="1" transform="matrix(1 0 0 1 0 0)"/>
<path d="M17,8 L21,7" fill="none" stroke="#000000" stroke-opacity="1" transform="matrix(1 0 0 1 0 0)"/>
<path d="M17,8 L19,7" fill="none" stroke="#000000" stroke-opacity="1" transform="matrix(1 0 0 1 0 0)"/>
<path d="M19,7 L20,6" fill="none" stroke="#000000" stroke-opacity="1" transform="matrix(1 0 0 1 0 0)"/>
<path d="M20,6 L21,7" fill="none" stroke="#000000" stroke-opacity="1" transform="matrix(1 0 0 1 0 0)"/>
<path d="M31,2 L33,3" fill="none" stroke="#000000" stroke-opacity="1" transform="matrix(1 0 0 1 0 0)"/>
<path d="M33,3 L33,5" fill="none" stroke="#000000" stroke-opacity="1" transform="matrix(1 0 0 1 0 0)"/>
<path d="M33,5 L32,7" fill="none" stroke="#000000" stroke-opacity="1" transform="matrix(1 0 0 1 0 0)"/>
<path d="M32,7 L31,10" fill="none" stroke="#000000" stroke-opacity="1" transform="matrix(1 0 0 1 0 0)"/>
<path d="M32,3 L32,5" fill="none" stroke="#000000" stroke-opacity="1" transform="matrix(1 0 0 1 0 0)"/>
<path d="M32,5 L31,10" fill="none" stroke="#000000" stroke-opacity="1" transform="matrix(1 0 0 1 0 0)"/>
<path d="M31,10 L31,13" fill="none" stroke="#000000" stroke-opacity="1" transform="matrix(1 0 0 1 0 0)"/>
<path d="M31,13 L32,16" fill="none" stroke="#000000" stroke-opacity="1" transform="matrix(1 0 0 1 0 0)"/>
<path d="M32,16 L33,17" fill="none" stroke="#000000" stroke-opacity="1" transform="matrix(1 0 0 1 0 0)"/>
<path d="M33,17 L35,18" fill="none" stroke="#000000" stroke-opacity="1" transform="matrix(1 0 0 1 0 0)"/>
<path d="M35,18 L36,18" fill="none" stroke="#000000" stroke-opacity="1" transform="matrix(1 0 0 1 0 0)"/>
<path d="M36,18 L36,16" fill="none" stroke="#000000" stroke-opacity="1" transform="matrix(1 0 0 1 0 0)"/>
<path d="M36,16 L37,13" fill="none" stroke="#000000" stroke-opacity="1" transform="matrix(1 0 0 1 0 0)"/>
<path d="M37,13 L38,11" fill="none" stroke="#000000" stroke-opacity="1" transform="matrix(1 0 0 1 0 0)"/>
<path d="M33,17 L35,17" fill="none" stroke="#000000" stroke-opacity="1" transform="matrix(1 0 0 1 0 0)"/>
<path d="M35,17 L36,16" fill="none" stroke="#000000" stroke-opacity="1" transform="matrix(1 0 0 1 0 0)"/>
<path d="M46,6 L48,7" fill="none" stroke="#000000" stroke-opacity="1" transform="matrix(1 0 0 1 0 0)"/>
<path d="M48,7 L50,10" fill="none" stroke="#000000" stroke-opacity="1" transform="matrix(1 0 0 1 0 0)"/>
<path d="M50,10 L51,13" fill="none" stroke="#000000" stroke-opacity="1" transform="matrix(1 0 0 1 0 0)"/>
<path d="M51,13 L51,15" fill="none" stroke="#000000" stroke-opacity="1" transform="matrix(1 0 0 1 0 0)"/>
<path d="M51,15 L49,14" fill="none" stroke="#000000" stroke-opacity="1" transform="matrix(1 0 0 1 0 0)"/>
<path d="M49,14 L46,15" fill="none" stroke="#000000" stroke-opacity="1" transform="matrix(1 0 0 1 0 0)"/>
<path d="M50,10 L50,13" fill="none" stroke="#000000" stroke-opacity="1" transform="matrix(1 0 0 1 0 0)"/>
<path d="M50,13 L49,14" fill="none" stroke="#000000" stroke-opacity="1" transform="matrix(1 0 0 1 0 0)"/>
<path d="M63,0 L65,1" fill="none" stroke="#000000" stroke-opacity="1" transform="matrix(1 0 0 1 0 0)"/>
<path d="M65,1 L65,3" fill="none" stroke="#000000" stroke-opacity="1" transform="matrix(1 0 0 1 0 0)"/>
<path d="M65,3 L63,21" fill="none" stroke="#000000" stroke-opacity="1" transform="matrix(1 0 0 1 0 0)"/>
<path d="M64,1 L64,21" fill="none" stroke="#000000" stroke-opacity="1" transform="matrix(1 0 0 1 0 0)"/>
<path d="M64,21 L63,21" fill="none" stroke="#000000" stroke-opacity="1" transform="matrix(1 0 0 1 0 0)"/>
<path d="M63,21 L62,18" fill="none" stroke="#000000" stroke-opacity="1" transform="matrix(1 0 0 1 0 0)"/>
<path d="M62,18 L61,17" fill="none" stroke="#000000" stroke-opacity="1" transform="matrix(1 0 0 1 0 0)"/>
<path d="M61,17 L59,16" fill="none" stroke="#000000" stroke-opacity="1" transform="matrix(1 0 0 1 0 0)"/>
<path d="M58,6 L59,8" fill="none" stroke="#000000" stroke-opacity="1" transform="matrix(1 0 0 1 0 0)"/>
<path d="M59,8 L61,8" fill="none" stroke="#000000" stroke-opacity="1" transform="matrix(1 0 0 1 0 0)"/>
<path d="M61,8 L65,6" fill="none" stroke="#000000" stroke-opacity="1" transform="matrix(1 0 0 1 0 0)"/>
<path d="M65,6 L65,7" fill="none" stroke="#000000" stroke-opacity="1" transform="matrix(1 0 0 1 0 0)"/>
<path d="M59,7 L62,7" fill="none" stroke="#000000" stroke-opacity="1" transform="matrix(1 0 0 1 0 0)"/>
<path d="M62,7 L65,6" fill="none" stroke="#000000" stroke-opacity="1" transform="matrix(1 0 0 1 0 0)"/>
<path d="M65,6 L63,10" fill="none" stroke="#000000" stroke-opacity="1" transform="matrix(1 0 0 1 0 0)"/>
<path d="M65,7 L63,10" fill="none" stroke="#000000" stroke-opacity="1" transform="matrix(1 0 0 1 0 0)"/>
<path d="M63,10 L61,13" fill="none" stroke="#000000" stroke-opacity="1" transform="matrix(1 0 0 1 0 0)"/>
<path d="M61,13 L58,17" fill="none" stroke="#000000" stroke-opacity="1" transform="matrix(1 0 0 1 0 0)"/>
<path d="M58,17 L58,16" fill="none" stroke="#000000" stroke-opacity="1" transform="matrix(1 0 0 1 0 0)"/>
<path d="M58,16 L61,13" fill="none" stroke="#000000" stroke-opacity="1" transform="matrix(1 0 0 1 0 0)"/>
<path d="M61,13 L65,9" fill="none" stroke="#000000" stroke-opacity="1" transform="matrix(1 0 0 1 0 0)"/>
<path d="M65,9 L69,6" fill="none" stroke="#000000" stroke-opacity="1" transform="matrix(1 0 0 1 0 0)"/>
<path d="M69,6 L72,5" fill="none" stroke="#000000" stroke-opacity="1" transform="matrix(1 0 0 1 0 0)"/>
<path d="M72,5 L73,5" fill="none" stroke="#000000" stroke-opacity="1" transform="matrix(1 0 0 1 0 0)"/>
<path d="M73,5 L75,6" fill="none" stroke="#000000" stroke-opacity="1" transform="matrix(1 0 0 1 0 0)"/>
<path d="M75,6 L76,8" fill="none" stroke="#000000" stroke-opacity="1" transform="matrix(1 0 0 1 0 0)"/>
<path d="M76,8 L75,18" fill="none" stroke="#000000" stroke-opacity="1" transform="matrix(1 0 0 1 0 0)"/>
<path d="M75,18 L75,20" fill="none" stroke="#000000" stroke-opacity="1" transform="matrix(1 0 0 1 0 0)"/>
<path d="M75,20 L76,21" fill="none" stroke="#000000" stroke-opacity="1" transform="matrix(1 0 0 1 0 0)"/>
<path d="M73,5 L74,6" fill="none" stroke="#000000" stroke-opacity="1" transform="matrix(1 0 0 1 0 0)"/>
<path d="M74,6 L75,8" fill="none" stroke="#000000" stroke-opacity="1" transform="matrix(1 0 0 1 0 0)"/>
<path d="M75,8 L74,18" fill="none" stroke="#000000" stroke-opacity="1" transform="matrix(1 0 0 1 0 0)"/>
<path d="M74,18 L74,20" fill="none" stroke="#000000" stroke-opacity="1" transform="matrix(1 0 0 1 0 0)"/>
<path d="M74,20 L75,21" fill="none" stroke="#000000" stroke-opacity="1" transform="matrix(1 0 0 1 0 0)"/>
<path d="M75,21 L76,21" fill="none" stroke="#000000" stroke-opacity="1" transform="matrix(1 0 0 1 0 0)"/>
<path d="M76,21 L77,20" fill="none" stroke="#000000" stroke-opacity="1" transform="matrix(1 0 0 1 0 0)"/>
<path d="M77,20 L78,18" fill="none" stroke="#000000" stroke-opacity="1" transform="matrix(1 0 0 1 0 0)"/>
<path d="M90,0 L92,1" fill="none" stroke="#000000" stroke-opacity="1" transform="matrix(1 0 0 1 0 0)"/>
<path d="M92,1 L92,3" fill="none" stroke="#000000" stroke-opacity="1" transform="matrix(1 0 0 1 0 0)"/>
<path d="M92,3 L90,21" fill="none" stroke="#000000" stroke-opacity="1" transform="matrix(1 0 0 1 0 0)"/>
<path d="M91,1 L91,21" fill="none" stroke="#000000" stroke-opacity="1" transform="matrix(1 0 0 1 0 0)"/>
<path d="M91,21 L90,21" fill="none" stroke="#000000" stroke-opacity="1" transform="matrix(1 0 0 1 0 0)"/>
<path d="M90,21 L89,18" fill="none" stroke="#000000" stroke-opacity="1" transform="matrix(1 0 0 1 0 0)"/>
<path d="M89,18 L88,17" fill="none" stroke="#000000" stroke-opacity="1" transform="matrix(1 0 0 1 0 0)"/>
<path d="M88,17 L86,16" fill="none" stroke="#000000" stroke-opacity="1" transform="matrix(1 0 0 1 0 0)"/>
<path d="M85,6 L86,8" fill="none" stroke="#000000" stroke-opacity="1" transform="matrix(1 0 0 1 0 0)"/>
<path d="M86,8 L88,8" fill="none" stroke="#000000" stroke-opacity="1" transform="matrix(1 0 0 1 0 0)"/>
<path d="M88,8 L92,6" fill="none" stroke="#000000" stroke-opacity="1" transform="matrix(1 0 0 1 0 0)"/>
<path d="M92,6 L92,7" fill="none" stroke="#000000" stroke-opacity="1" transform="matrix(1 0 0 1 0 0)"/>
<path d="M86,7 L89,7" fill="none" stroke="#000000" stroke-opacity="1" transform="matrix(1 0 0 1 0 0)"/>
<path d="M89,7 L92,6" fill="none" stroke="#000000" stroke-opacity="1" transform="matrix(1 0 0 1 0 0)"/>
<path d="M92,6 L90,10" fill="none" stroke="#000000" stroke-opacity="1" transform="matrix(1 0 0 1 0 0)"/>
<path d="M92,7 L90,10" fill="none" stroke="#000000" stroke-opacity="1" transform="matrix(1 0 0 1 0 0)"/>
<path d="M90,10 L88,13" fill="none" stroke="#000000" stroke-opacity="1" transform="matrix(1 0 0 1 0 0)"/>
<path d="M88,13 L85,17" fill="none" stroke="#000000" stroke-opacity="1" transform="matrix(1 0 0 1 0 0)"/>
<path d="M85,17 L85,16" fill="none" stroke="#000000" stroke-opacity="1" transform="matrix(1 0 0 1 0 0)"/>
<path d="M85,16 L88,13" fill="none" stroke="#000000" stroke-opacity="1" transform="matrix(1 0 0 1 0 0)"/>
<path d="M88,13 L92,9" fill="none" stroke="#000000" stroke-opacity="1" transform="matrix(1 0 0 1 0 0)"/>
<path d="M92,9 L96,6" fill="none" stroke="#000000" stroke-opacity="1" transform="matrix(1 0 0 1 0 0)"/>
<path d="M96,6 L99,5" fill="none" stroke="#000000" stroke-opacity="1" transform="matrix(1 0 0 1 0 0)"/>
<path d="M99,5 L100,5" fill="none" stroke="#000000" stroke-opacity="1" transform="matrix(1 0 0 1 0 0)"/>
<path d="M100,5 L102,6" fill="none" stroke="#000000" stroke-opacity="1" transform="matrix(1 0 0 1 0 0)"/>
<path d="M102,6 L103,8" fill="none" stroke="#000000" stroke-opacity="1" transform="matrix(1 0 0 1 0 0)"/>
<path d="M103,8 L102,18" fill="none" stroke="#000000" stroke-opacity="1" transform="matrix(1 0 0 1 0 0)"/>
<path d="M102,18 L102,20" fill="none" stroke="#000000" stroke-opacity="1" transform="matrix(1 0 0 1 0 0)"/>
<path d="M102,20 L103,21" fill="none" stroke="#000000" stroke-opacity="1" transform="matrix(1 0 0 1 0 0)"/>
<path d="M100,5 L101,6" fill="none" stroke="#000000" stroke-opacity="1" transform="matrix(1 0 0 1 0 0)"/>
<path d="M101,6 L102,8" fill="none" stroke="#000000" stroke-opacity="1" transform="matrix(1 0 0 1 0 0)"/>
<path d="M102,8 L101,18" fill="none" stroke="#000000" stroke-opacity="1" transform="matrix(1 0 0 1 0 0)"/>
<path d="M101,18 L101,20" fill="none" stroke="#000000" stroke-opacity="1" transform="matrix(1 0 0 1 0 0)"/>
<path d="M101,20 L102,21" fill="none" stroke="#000000" stroke-opacity="1" transform="matrix(1 0 0 1 0 0)"/>
<path d="M102,21 L103,21" fill="none" stroke="#000000" stroke-opacity="1" transform="matrix(1 0 0 1 0 0)"/>
<path d="M103,21 L104,20" fill="none" stroke="#000000" stroke-opacity="1" transform="matrix(1 0 0 1 0 0)"/>
<path d="M104,20 L105,18" fill="none" stroke="#000000" stroke-opacity="1" transform="matrix(1 0 0 1 0 0)"/>
<path d="M117,1 L118,3" fill="none" stroke="#000000" stroke-opacity="1" transform="matrix(1 0 0 1 0 0)"/>
<path d="M118,3 L120,3" fill="none" stroke="#000000" stroke-opacity="1" transform="matrix(1 0 0 1 0 0)"/>
<path d="M120,3 L124,1" fill="none" stroke="#000000" stroke-opacity="1" transform="matrix(1 0 0 1 0 0)"/>
<path d="M118,2 L120,2" fill="none" stroke="#000000" stroke-opacity="1" transform="matrix(1 0 0 1 0 0)"/>
<path d="M120,2 L124,1" fill="none" stroke="#000000" stroke-opacity="1" transform="matrix(1 0 0 1 0 0)"/>
<path d="M124,1 L125,2" fill="none" stroke="#000000" stroke-opacity="1" transform="matrix(1 0 0 1 0 0)"/>
<path d="M125,2 L121,8" fill="none" stroke="#000000" stroke-opacity="1" transform="matrix(1 0 0 1 0 0)"/>
<path d="M121,8 L117,16" fill="none" stroke="#000000" stroke-opacity="1" transform="matrix(1 0 0 1 0 0)"/>
<path d="M117,16 L116,18" fill="none" stroke="#000000" stroke-opacity="1" transform="matrix(1 0 0 1 0 0)"/>
<path d="M116,18 L115,19" fill="none" stroke="#000000" stroke-opacity="1" transform="matrix(1 0 0 1 0 0)"/>
<path d="M115,19 L113,19" fill="none" stroke="#000000" stroke-opacity="1" transform="matrix(1 0 0 1 0 0)"/>
<path d="M113,19 L112,17" fill="none" stroke="#000000" stroke-opacity="1" transform="matrix(1 0 0 1 0 0)"/>
<path d="M112,17 L112,15" fill="none" stroke="#000000" stroke-opacity="1" transform="matrix(1 0 0 1 0 0)"/>
<path d="M112,15 L113,13" fill="none" stroke="#000000" stroke-opacity="1" transform="matrix(1 0 0 1 0 0)"/>
<path d="M113,13 L115,11" fill="none" stroke="#000000" stroke-opacity="1" transform="matrix(1 0 0 1 0 0)"/>
<path d="M115,11 L118,9" fill="none" stroke="#000000" stroke-opacity="1" transform="matrix(1 0 0 1 0 0)"/>
<path d="M118,9 L122,8" fill="none" stroke="#000000" stroke-opacity="1" transform="matrix(1 0 0 1 0 0)"/>
<path d="M122,8 L126,8" fill="none" stroke="#000000" stroke-opacity="1" transform="matrix(1 0 0 1 0 0)"/>
<path d="M126,8 L129,9" fill="none" stroke="#000000" stroke-opacity="1" transform="matrix(1 0 0 1 0 0)"/>
<path d="M129,9 L131,11" fill="none" stroke="#000000" stroke-opacity="1" transform="matrix(1 0 0 1 0 0)"/>
<path d="M131,11 L132,13" fill="none" stroke="#000000" stroke-opacity="1" transform="matrix(1 0 0 1 0 0)"/>
<path d="M132,13 L132,16" fill="none" stroke="#000000" stroke-opacity="1" transform="matrix(1 0 0 1 0 0)"/>
<path d="M132,16 L131,18" fill="none" stroke="#000000" stroke-opacity="1" transform="matrix(1 0 0 1 0 0)"/>
<path d="M131,18 L129,20" fill="none" stroke="#000000" stroke-opacity="1" transform="matrix(1 0 0 1 0 0)"/>
<path d="M129,20 L127,21" fill="none" stroke="#000000" stroke-opacity="1" transform="matrix(1 0 0 1 0 0)"/>
<path d="M127,21 L124,21" fill="none" stroke="#000000" stroke-opacity="1" transform="matrix(1 0 0 1 0 0)"/>
<path d="M124,21 L122,20" fill="none" stroke="#000000" stroke-opacity="1" transform="matrix(1 0 0 1 0 0)"/>
<path d="M122,20 L121,19" fill="none" stroke="#000000" stroke-opacity="1" transform="matrix(1 0 0 1 0 0)"/>
<path d="M121,19 L121,18" fill="none" stroke="#000000" stroke-opacity="1" transform="matrix(1 0 0 1 0 0)"/>
<path d="M121,18 L122,17" fill="none" stroke="#000000" stroke-opacity="1" transform="matrix(1 0 0 1 0 0)"/>
<path d="M122,17 L124,17" fill="none" stroke="#000000" stroke-opacity="1" transform="matrix(1 0 0 1 0 0)"/>
<path d="M124,17 L126,18" fill="none" stroke="#000000" stroke-opacity="1" transform="matrix(1 0 0 1 0 0)"/>
<path d="M126,18 L128,20" fill="none" stroke="#000000" stroke-opacity="1" transform="matrix(1 0 0 1 0 0)"/>
<path d="M124,1 L121,8" fill="none" stroke="#000000" stroke-opacity="1" transform="matrix(1 0 0 1 0 0)"/>
<path d="M114,19 L113,17" fill="none" stroke="#000000" stroke-opacity="1" transform="matrix(1 0 0 1 0 0)"/>
<path d="M113,17 L113,15" fill="none" stroke="#000000" stroke-opacity="1" transform="matrix(1 0 0 1 0 0)"/>
<path d="M113,15 L114,12" fill="none" stroke="#000000" stroke-opacity="1" transform="matrix(1 0 0 1 0 0)"/>
<path d="M130,10 L131,13" fill="none" stroke="#000000" stroke-opacity="1" transform="matrix(1 0 0 1 0 0)"/>
<path d="M131,13 L131,16" fill="none" stroke="#000000" stroke-opacity="1" transform="matrix(1 0 0 1 0 0)"/>
<path d="M131,16 L130,19" fill="none" stroke="#000000" stroke-opacity="1" transform="matrix(1 0 0 1 0 0)"/>
</svg>